<?xml version="1.0" encoding="UTF-8" standalone="no"?>
<svg
   fill="#fff"
   width="45"
   height="29"
   viewBox="0 0 45 29"
   version="1.1"
   id="svg1"
   sodipodi:docname="icon.svg"
   inkscape:version="1.3 (0e150ed6c4, 2023-07-21)"
   xmlns:inkscape="http://www.inkscape.org/namespaces/inkscape"
   xmlns:sodipodi="http://sodipodi.sourceforge.net/DTD/sodipodi-0.dtd"
   xmlns="http://www.w3.org/2000/svg"
   xmlns:svg="http://www.w3.org/2000/svg">
  <defs
     id="defs1" />
  <sodipodi:namedview
     id="namedview1"
     pagecolor="#ffffff"
     bordercolor="#000000"
     borderopacity="0.25"
     inkscape:showpageshadow="2"
     inkscape:pageopacity="0.0"
     inkscape:pagecheckerboard="0"
     inkscape:deskcolor="#d1d1d1"
     inkscape:zoom="6.5368094"
     inkscape:cx="4.8953546"
     inkscape:cy="11.473487"
     inkscape:window-width="1920"
     inkscape:window-height="991"
     inkscape:window-x="-9"
     inkscape:window-y="-9"
     inkscape:window-maximized="1"
     inkscape:current-layer="svg1" />
  <path
     d="m 21.793875,18.888059 7.18,-18.34999959 c 0.167,-0.433 0.652,-0.648 1.084,-0.482 0.19,0.073 0.35,0.212 0.44,0.39 l 14.407,27.32399959 c 0.212,0.41 0.059,0.917 -0.351,1.133 -0.127,0.064 -0.257,0.097 -0.397,0.097 h -4.6 c -2.497,0 -4.786,-1.39 -5.94,-3.605 l -7.12,-13.662 -3.655,9.15 3.63,6.887 c 0.214,0.41 0.06,0.917 -0.35,1.133 -0.12,0.064 -0.256,0.097 -0.39,0.097 h -4.6 c -2.497,0 -4.786,-1.39 -5.94,-3.605 l -7.9950002,-15.345 c -0.11,-0.2099996 -0.124,-0.4619996 -0.04,-0.6859996 L 10.546875,0.54005941 c 0.168,-0.434 0.65,-0.65 1.084,-0.483 0.19,0.073 0.345,0.212 0.44,0.39 l 9.72,18.44199959 z m -19.0740002,1.752 c 0.07,-0.19 0.208,-0.35 0.387,-0.446 0.406,-0.22 0.914,-0.07 1.135,0.34 l 3.907,7.226 c 0.067,0.123 0.1,0.26 0.1,0.4 0,0.463 -0.374,0.838 -0.836,0.838 H 0.83487475 c -0.1,0 -0.198,-0.018 -0.29,-0.052 -0.435,-0.16 -0.656,-0.643 -0.496,-1.077 l 2.67000005,-7.23 z"
     id="path1"
     style="fill:#ffffff" />
</svg>
